HIERARCHY
ROOT Hip
{
	OFFSET	0.0000	0.0000	0.0000
	CHANNELS 6 Xposition Yposition Zposition Xrotation Yrotation Zrotation
	JOINT LowerSpine
	{
		OFFSET	0.0000	8.3453	-5.1292
		CHANNELS 3 Xrotation Yrotation Zrotation
		JOINT MiddleSpine
		{
			OFFSET	10.8569	0.0000	0.0000
			CHANNELS 3 Xrotation Yrotation Zrotation
			JOINT Chest
			{
				OFFSET	15.2984	0.0000	0.0000
				CHANNELS 3 Xrotation Yrotation Zrotation
				JOINT Neck
				{
					OFFSET	25.6618	-0.5986	0.0000
					CHANNELS 3 Xrotation Yrotation Zrotation
					JOINT Head
					{
						OFFSET	8.8829	0.0000	0.0000
						CHANNELS 3 Xrotation Yrotation Zrotation
						End Site
						{
							OFFSET	19.7399	0.0000	0.0000
						}
					}
				}
				JOINT RClavicle
				{
					OFFSET	23.6878	0.0000	3.1584
					CHANNELS 3 Xrotation Yrotation Zrotation
					JOINT RShoulder
					{
						OFFSET	-15.5945	-3.9480	0.9870
						CHANNELS 3 Xrotation Yrotation Zrotation
						JOINT RForearm
						{
							OFFSET	-31.3370	0.0000	0.1974
							CHANNELS 3 Xrotation Yrotation Zrotation
							JOINT RHand
							{
								OFFSET	-26.4021	0.0000	0.0000
								CHANNELS 3 Xrotation Yrotation Zrotation
								End Site
								{
									OFFSET	-15.7919	-0.9870	0.0000
								}
							}
						}
					}
				}
				JOINT LClavicle
				{
					OFFSET	23.6878	0.0000	-3.1584
					CHANNELS 3 Xrotation Yrotation Zrotation
					JOINT LShoulder
					{
						OFFSET	-15.5945	-3.9480	-0.9870
						CHANNELS 3 Xrotation Yrotation Zrotation
						JOINT LForearm
						{
							OFFSET	-31.3370	0.0000	-0.1974
							CHANNELS 3 Xrotation Yrotation Zrotation
							JOINT LHand
							{
								OFFSET	-26.4021	0.0000	0.0000
								CHANNELS 3 Xrotation Yrotation Zrotation
								End Site
								{
									OFFSET	-15.7919	-0.9870	0.0000
								}
							}
						}
					}
				}
			}
		}
	}
	JOINT RThigh
	{
		OFFSET	-8.8829	0.4481	0.0000
		CHANNELS 3 Xrotation Yrotation Zrotation
		JOINT RShin
		{
			OFFSET	43.1316	0.0000	-0.4935
			CHANNELS 3 Xrotation Yrotation Zrotation
			JOINT RFoot
			{
				OFFSET	0.0000	-44.7256	-0.4047
				CHANNELS 3 Xrotation Yrotation Zrotation
				JOINT RToe
				{
					OFFSET	0.0000	-3.9332	12.1953
					CHANNELS 3 Xrotation Yrotation Zrotation
					End Site
					{
						OFFSET	6.7725	0.0000	0.0000
					}
				}
			}
		}
	}
	JOINT LThigh
	{
		OFFSET	8.8829	0.4481	0.0000
		CHANNELS 3 Xrotation Yrotation Zrotation
		JOINT LShin
		{
			OFFSET	43.1316	0.0000	0.4935
			CHANNELS 3 Xrotation Yrotation Zrotation
			JOINT LFoot
			{
				OFFSET	0.0000	-44.7256	0.4047
				CHANNELS 3 Xrotation Yrotation Zrotation
				JOINT LToe
				{
					OFFSET	0.0000	-3.9332	-12.1953
					CHANNELS 3 Xrotation Yrotation Zrotation
					End Site
					{
						OFFSET	6.7725	0.0000	0.0000
					}
				}
			}
		}
	}
}
MOTION
Frames:	5
Frame Time: 0.0169491000
	-12.7330	86.9202	12.6708	27.209770	-17.995880	20.723550	-89.999990	-90.000000	0.000000	-0.593538	0.171478	1.086684	-1.993440	0.527135	3.634510	0.000000	0.000000	0.000000	0.000000	0.000000	0.000000	90.010910	0.163393	-92.199000	-67.277450	43.388600	16.122190	170.236400	58.134720	-168.844200	0.000000	0.000000	0.000000	-90.068280	0.990203	-76.637130	-25.803210	-5.254165	55.976950	-4.217116	-37.217980	-7.369224	0.000000	0.000000	0.000000	77.675610	72.359410	137.613200	89.568990	45.920910	90.119420	-16.688190	0.922223	0.725148	179.250600	90.000000	0.000000	-159.030900	79.741480	51.955090	-89.962960	-4.531412	89.997100	6.330589	-2.577070	1.156829	186.059500	-90.000000	0.000000
	-12.9038	87.0271	12.9552	27.710620	-19.338870	21.607180	-89.999990	-90.000000	0.000000	-0.542588	0.150357	1.062811	-1.817715	0.462309	3.549738	0.000000	0.000000	0.000000	0.000000	0.000000	0.000000	90.007330	0.119239	-91.603990	-67.375510	42.824060	15.956890	169.642800	59.654340	-168.335900	0.000000	0.000000	0.000000	-90.064700	0.970895	-76.900960	-26.079650	-5.337873	56.731260	-4.293005	-37.682350	-7.415370	0.000000	0.000000	0.000000	80.705090	72.138790	134.586000	89.575870	45.479980	90.115350	-16.648700	1.200818	0.916887	179.384400	90.000000	0.000000	-160.032200	79.964310	53.922930	-89.970660	-3.671907	89.997480	6.498333	-3.854104	1.714583	186.336300	-90.000000	0.000000
	-12.9714	87.1180	13.1433	28.308220	-20.546230	22.506230	-89.999990	-90.000000	0.000000	-0.492265	0.123138	1.042080	-1.645174	0.373419	3.478446	0.000000	0.000000	0.000000	0.000000	0.000000	0.000000	90.004680	0.082177	-91.104920	-67.402260	42.185690	15.526660	169.021100	61.108140	-167.795400	0.000000	0.000000	0.000000	-90.060430	0.947193	-77.224450	-26.151130	-5.845284	57.442610	-4.372973	-38.165410	-7.464520	0.000000	0.000000	0.000000	84.765360	71.598500	130.437500	89.582590	45.042750	90.111430	-16.591350	1.209221	0.922770	179.553600	90.000000	0.000000	-161.523300	80.199290	56.006860	-89.975000	-3.187328	89.997750	6.037141	-3.077810	1.347277	186.850700	-90.000000	0.000000
	-13.0259	87.1766	13.2521	28.906580	-21.528500	23.312210	-89.999990	-90.000000	0.000000	-0.449449	0.094291	1.025628	-1.506977	0.280923	3.423274	0.000000	0.000000	0.000000	0.000000	0.000000	0.000000	90.002920	0.054636	-90.734280	-67.473070	41.706340	15.056990	168.502800	62.223890	-167.339200	0.000000	0.000000	0.000000	-90.055310	0.917645	-77.627340	-26.030350	-6.701990	58.103880	-4.437050	-38.547890	-7.504283	0.000000	0.000000	0.000000	89.174370	70.845280	125.828300	89.585570	44.847370	90.109700	-16.490160	0.811965	0.652690	179.603800	90.000000	0.000000	-162.970400	80.380940	57.832100	-89.978230	-2.824610	89.997980	4.980608	-0.993711	0.444149	187.911600	-90.000000	0.000000
	-13.1048	87.2356	13.3592	29.455040	-22.338230	24.015510	-89.999990	-90.000000	0.000000	-0.422268	0.068142	1.013623	-1.426674	0.199263	3.382508	0.000000	0.000000	0.000000	0.000000	0.000000	0.000000	90.001870	0.036595	-90.491580	-67.412120	41.075950	14.559910	168.242000	62.755060	-167.107900	0.000000	0.000000	0.000000	-90.049570	0.882994	-78.099140	-25.764890	-7.851174	58.771810	-4.431321	-38.513850	-7.500713	0.000000	0.000000	0.000000	92.493880	70.162350	122.317600	89.587800	44.700130	90.108430	-16.396170	0.328749	0.325666	179.644900	90.000000	0.000000	-164.160800	80.516320	59.395940	-89.982470	-2.353152	89.998290	3.833431	0.420565	-0.141337	189.259800	-90.000000	0.000000
